<svg width="26" height="26" viewBox="0 0 26 26" fill="none" xmlns="http://www.w3.org/2000/svg">
<g clip-path="url(#clip0)">
<path d="M12.9999 0C12.4931 0 12.0823 0.41082 12.0823 0.917668V17.6494C12.0823 18.1563 12.4931 18.5671 12.9999 18.5671C13.5068 18.5671 13.9176 18.1563 13.9176 17.6494V0.917668C13.9176 0.41082 13.5068 0 12.9999 0Z" fill="white"/>
<path d="M19.1766 12.1594C18.831 11.7893 18.2504 11.7688 17.8797 12.1148L13 16.6693L8.12024 12.1151C7.74984 11.7694 7.16926 11.7893 6.82329 12.1597C6.47731 12.5301 6.49753 13.1107 6.86792 13.4567L12.3738 18.5955C12.55 18.7601 12.7751 18.8423 13 18.8423C13.2248 18.8423 13.4499 18.7601 13.6261 18.5952L19.132 13.4564C19.5021 13.1104 19.5223 12.5299 19.1766 12.1594Z" fill="white"/>
<path d="M23.0941 5.81176H17.5883C17.0814 5.81176 16.6706 6.22258 16.6706 6.72943C16.6706 7.23627 17.0814 7.64709 17.5883 7.64709H22.1765V24.1648H3.82357V7.64704H8.4118C8.91865 7.64704 9.32947 7.23622 9.32947 6.72937C9.32947 6.22253 8.91865 5.81171 8.4118 5.81171H2.90595C2.3991 5.81171 1.98828 6.22253 1.98828 6.72937V25.0823C1.98828 25.5892 2.3991 26 2.90595 26H23.0942C23.601 26 24.0119 25.5892 24.0119 25.0823V6.72943C24.0118 6.22258 23.601 5.81176 23.0941 5.81176Z" fill="white"/>
</g>
<defs>
<clipPath id="clip0">
<rect width="26" height="26" fill="white"/>
</clipPath>
</defs>
</svg>
