<svg xmlns="http://www.w3.org/2000/svg" width="25.072" height="23.485" viewBox="0 0 25.072 23.485">
  <g id="Wallet" transform="translate(-4 -5)">
    <path id="Path_1" data-name="Path 1" d="M4,8.914a.933.933,0,0,1,.933-.933H28.14a.933.933,0,0,1,.933.933V25.862a.933.933,0,0,1-.933.933H4.933A.933.933,0,0,1,4,25.862Zm1.865.933V24.93H27.207V9.847Z" transform="translate(0 1.691)" fill="#fff" fill-rule="evenodd"/>
    <path id="Path_2" data-name="Path 2" d="M13.033,15.314A4.014,4.014,0,0,1,17.047,11.3h5.585a.933.933,0,0,1,.933.933V18.4a.933.933,0,0,1-.933.933H17.047A4.014,4.014,0,0,1,13.033,15.314Zm4.014-2.149a2.149,2.149,0,0,0,0,4.3H21.7v-4.3Z" transform="translate(5.122 3.572)" fill="#fff" fill-rule="evenodd"/>
    <path id="Path_3" data-name="Path 3" d="M16.262,15.534a1.22,1.22,0,1,0-1.22-1.22A1.22,1.22,0,0,0,16.262,15.534Z" transform="translate(6.261 4.589)" fill="#fff" fill-rule="evenodd"/>
    <path id="Path_4" data-name="Path 4" d="M21.915,7.17c.123-.027.262-.061.391-.094l.079-.02c.168-.042.335-.082.505-.116a2.736,2.736,0,0,1,.876-.061.517.517,0,0,1,.38.192,1.809,1.809,0,0,1,.228,1.075.933.933,0,0,0,1.865,0,3.579,3.579,0,0,0-.6-2.2,2.372,2.372,0,0,0-1.6-.917,4.54,4.54,0,0,0-1.5.077c-.218.043-.422.093-.6.136l-.092.023c-.137.034-.241.06-.332.079l-.039.009L4.782,9.627a.933.933,0,0,0,.462,1.807Z" transform="translate(0.045 0)" fill="#fff" fill-rule="evenodd"/>
  </g>
</svg>
